# xmcd
#
# Track frame offsets:
#	150
#	18622
#	36830
#	57567
#	72247
#	86557
#	100515
#	114100
#	130179
#	150247
#	168709
#	184840
#	200537
#
# Disc length: 3050 seconds
#
# Revision: 1
# Processed by: cddbd v1.4PL0 Copyright (c) Steve Scherf et al.
# Submitted via: audiograbber 1.81.03
#
DISCID=a80be80d
DTITLE=Young Neal and the Vipers - Thirteen
DYEAR=1996
DGENRE=Blues
TTITLE0=I Can't Keep Up Wtih You
TTITLE1=Ruby Lee
TTITLE2=Give Your Love (Back to Your Husband)
TTITLE3=Had Enough
TTITLE4=Radiates That Charm
TTITLE5=Retro Man
TTITLE6=Drives Me Wild
TTITLE7=It Be's That Way
TTITLE8=Treat Me Like a Dog
TTITLE9=All That and a Cadillac Too
TTITLE10=Heebie Jeebies
TTITLE11=Can't Touch Things
TTITLE12=I Won't Tell You No Lies
EXTD=
EXTT0=
EXTT1=
EXTT2=
EXTT3=
EXTT4=
EXTT5=
EXTT6=
EXTT7=
EXTT8=
EXTT9=
EXTT10=
EXTT11=
EXTT12=
PLAYORDER=
